<svg xmlns="http://www.w3.org/2000/svg" width="1800" height="720" viewBox="0 0 1800 720" role="img" aria-labelledby="title desc">
  <title id="title">Community Universe hero banner</title>
  <desc id="desc">Abstract knowledge field banner for the Vaishviq Community Universe persistence scope.</desc>
  <defs>
    <linearGradient id="bg-community-universe" x1="0" x2="1" y1="0" y2="1">
      <stop offset="0%" stop-color="#936219"/>
      <stop offset="54%" stop-color="#101713"/>
      <stop offset="100%" stop-color="#bb842c"/>
    </linearGradient>
    <pattern id="grid-community-universe" width="44" height="44" patternUnits="userSpaceOnUse">
      <path d="M44 0H0V44" fill="none" stroke="#f4d08a" stroke-width="1" opacity="0.11"/>
    </pattern>
    <filter id="soft-community-universe" x="-20%" y="-20%" width="140%" height="140%">
      <feGaussianBlur stdDeviation="18"/>
    </filter>
  </defs>
  <rect width="1800" height="720" fill="url(#bg-community-universe)"/>
  <rect width="1800" height="720" fill="url(#grid-community-universe)"/>
  <circle cx="1450" cy="124" r="260" fill="#f4d08a" opacity="0.12" filter="url(#soft-community-universe)"/>
  <circle cx="1280" cy="606" r="320" fill="#bb842c" opacity="0.14" filter="url(#soft-community-universe)"/>
  <ellipse cx="1120" cy="360" rx="270" ry="110" fill="none" stroke="#bb842c" stroke-width="2" opacity="0.14" transform="rotate(-18 1120 360)"/>
<ellipse cx="1168" cy="341" rx="250" ry="118" fill="none" stroke="#bb842c" stroke-width="3" opacity="0.17500000000000002" transform="rotate(-14 1168 341)"/>
<ellipse cx="1216" cy="322" rx="230" ry="126" fill="none" stroke="#bb842c" stroke-width="4" opacity="0.21000000000000002" transform="rotate(-10 1216 322)"/>
<ellipse cx="1264" cy="303" rx="210" ry="134" fill="none" stroke="#bb842c" stroke-width="2" opacity="0.24500000000000002" transform="rotate(-6 1264 303)"/>
<ellipse cx="1312" cy="284" rx="190" ry="142" fill="none" stroke="#bb842c" stroke-width="3" opacity="0.28" transform="rotate(-2 1312 284)"/>
<ellipse cx="1360" cy="265" rx="170" ry="150" fill="none" stroke="#bb842c" stroke-width="4" opacity="0.31500000000000006" transform="rotate(2 1360 265)"/>
<ellipse cx="1408" cy="246" rx="150" ry="158" fill="none" stroke="#bb842c" stroke-width="2" opacity="0.35000000000000003" transform="rotate(6 1408 246)"/>
<ellipse cx="1456" cy="227" rx="130" ry="166" fill="none" stroke="#bb842c" stroke-width="3" opacity="0.385" transform="rotate(10 1456 227)"/>
  <line x1="715" y1="435" x2="888" y2="532" stroke="#f4d08a" stroke-width="1.2" opacity="0.18"/>
<line x1="888" y1="532" x2="1061" y2="159" stroke="#f4d08a" stroke-width="1.2" opacity="0.18"/>
<line x1="1061" y1="159" x2="1234" y2="256" stroke="#f4d08a" stroke-width="1.2" opacity="0.18"/>
<line x1="1234" y1="256" x2="1407" y2="353" stroke="#f4d08a" stroke-width="1.2" opacity="0.18"/>
<line x1="1407" y1="353" x2="160" y2="450" stroke="#f4d08a" stroke-width="1.2" opacity="0.18"/>
<line x1="160" y1="450" x2="333" y2="547" stroke="#f4d08a" stroke-width="1.2" opacity="0.18"/>
<line x1="333" y1="547" x2="506" y2="174" stroke="#f4d08a" stroke-width="1.2" opacity="0.18"/>
<line x1="506" y1="174" x2="679" y2="271" stroke="#f4d08a" stroke-width="1.2" opacity="0.18"/>
<line x1="679" y1="271" x2="852" y2="368" stroke="#f4d08a" stroke-width="1.2" opacity="0.18"/>
<line x1="852" y1="368" x2="1025" y2="465" stroke="#f4d08a" stroke-width="1.2" opacity="0.18"/>
<line x1="1025" y1="465" x2="1198" y2="562" stroke="#f4d08a" stroke-width="1.2" opacity="0.18"/>
<line x1="1198" y1="562" x2="1371" y2="189" stroke="#f4d08a" stroke-width="1.2" opacity="0.18"/>
<line x1="1371" y1="189" x2="1544" y2="286" stroke="#f4d08a" stroke-width="1.2" opacity="0.18"/>
<line x1="1544" y1="286" x2="297" y2="383" stroke="#f4d08a" stroke-width="1.2" opacity="0.18"/>
<line x1="297" y1="383" x2="470" y2="480" stroke="#f4d08a" stroke-width="1.2" opacity="0.18"/>
<line x1="470" y1="480" x2="643" y2="577" stroke="#f4d08a" stroke-width="1.2" opacity="0.18"/>
<line x1="643" y1="577" x2="816" y2="204" stroke="#f4d08a" stroke-width="1.2" opacity="0.18"/>
  <circle cx="715" cy="435" r="6" fill="#f4d08a" opacity="0.24"/>
<circle cx="888" cy="532" r="7" fill="#f4d08a" opacity="0.32"/>
<circle cx="1061" cy="159" r="8" fill="#f4d08a" opacity="0.4"/>
<circle cx="1234" cy="256" r="3" fill="#f4d08a" opacity="0.48"/>
<circle cx="1407" cy="353" r="4" fill="#f4d08a" opacity="0.24"/>
<circle cx="160" cy="450" r="5" fill="#f4d08a" opacity="0.32"/>
<circle cx="333" cy="547" r="6" fill="#f4d08a" opacity="0.4"/>
<circle cx="506" cy="174" r="7" fill="#f4d08a" opacity="0.48"/>
<circle cx="679" cy="271" r="8" fill="#f4d08a" opacity="0.24"/>
<circle cx="852" cy="368" r="3" fill="#f4d08a" opacity="0.32"/>
<circle cx="1025" cy="465" r="4" fill="#f4d08a" opacity="0.4"/>
<circle cx="1198" cy="562" r="5" fill="#f4d08a" opacity="0.48"/>
<circle cx="1371" cy="189" r="6" fill="#f4d08a" opacity="0.24"/>
<circle cx="1544" cy="286" r="7" fill="#f4d08a" opacity="0.32"/>
<circle cx="297" cy="383" r="8" fill="#f4d08a" opacity="0.4"/>
<circle cx="470" cy="480" r="3" fill="#f4d08a" opacity="0.48"/>
<circle cx="643" cy="577" r="4" fill="#f4d08a" opacity="0.24"/>
<circle cx="816" cy="204" r="5" fill="#f4d08a" opacity="0.32"/>
  <path d="M0 560C240 494 366 622 586 548C812 472 936 402 1168 466C1398 530 1562 464 1800 386V720H0Z" fill="#000000" opacity="0.18"/>
  <path d="M102 610C294 510 454 564 612 462C806 336 990 330 1184 406C1394 488 1570 398 1708 310" fill="none" stroke="#f4d08a" stroke-width="3" opacity="0.34"/>
  <text x="104" y="594" fill="#f4d08a" opacity="0.22" font-family="ui-sans-serif, system-ui" font-size="34" font-weight="700" letter-spacing="0">knowledge field</text>
</svg>
